<svg id="Capa_1" enable-background="new 0 0 512 512" height="512" viewBox="0 0 512 512" width="512" xmlns="http://www.w3.org/2000/svg"><g><g><path clip-rule="evenodd" d="m308.922 24.922-53.176 94.393-33.278 55.686v43.639h51.674 41.554 33.334l28.714-66.245 40.846 122.512 1.049-.312c.17-.057.312-.085.454-.142l61.141-17.291-70.467-209.762c-5.726-16.979-15.108-22.479-33.022-22.479h-47.365-21.458z" fill="#ffdcd5" fill-rule="evenodd"/></g><g><path clip-rule="evenodd" d="m100.725 47.4-70.495 209.79 62.672 17.716 40.846-122.512 28.686 66.245h60.036v-43.639l33.278-55.686-53.178-94.392h-21.458-47.365c-17.914 0-27.297 5.499-33.022 22.478z" fill="#ffdcd5" fill-rule="evenodd"/></g><g><path clip-rule="evenodd" d="m30.229 257.191c-5.017-1.417-10.289 1.531-11.707 6.548l-8.163 28.856c-1.417 5.017 1.531 10.29 6.548 11.707l61.68 17.433c5.017 1.417 10.261-1.502 11.678-6.52l8.192-28.885c1.417-5.017-1.531-10.29-6.548-11.707z" fill="#ff7d95" fill-rule="evenodd"/></g><g><path clip-rule="evenodd" d="m274.142 260.167v105.618c0 3.005 2.494 5.499 5.499 5.499h30.528c3.033 0 5.527-2.495 5.527-5.499v-105.618h39.967c3.033 0 5.499-2.466 5.499-5.499v-30.529c0-3.033-2.466-5.499-5.499-5.499h-193.23-6.604c-3.033 0-5.499 2.466-5.499 5.499v30.529c0 3.033 2.466 5.499 5.499 5.499h4.677z" fill="#ffd88e" fill-rule="evenodd"/></g><g><path clip-rule="evenodd" d="m202.57 24.922 53.176 94.392 53.176-94.392z" fill="#ff7d95" fill-rule="evenodd"/></g><g><path clip-rule="evenodd" d="m160.505 260.167c-27.098 64.856-29.394 119.281-29.479 185.356h91.442v-185.356z" fill="#ffdcd5" fill-rule="evenodd"/></g><g><path clip-rule="evenodd" d="m222.468 260.167v185.356h162.675c-.057-66.075-2.381-120.5-29.479-185.356h-39.967v105.618c0 3.005-2.494 5.499-5.527 5.499h-30.528c-3.005 0-5.499-2.495-5.499-5.499v-105.618z" fill="#ffdcd5" fill-rule="evenodd"/></g><g><path clip-rule="evenodd" d="m385.143 445.523h-162.675-91.442c-3.033 0-5.499 2.494-5.499 5.527v30.529c0 3.005 2.466 5.499 5.499 5.499h254.117c3.033 0 5.499-2.494 5.499-5.499v-30.529c0-3.033-2.466-5.527-5.499-5.527z" fill="#ff7d95" fill-rule="evenodd"/></g><g><path clip-rule="evenodd" d="m419.639 274.595c-4.734 1.587-7.455 6.69-6.066 11.565l8.163 28.856c1.417 5.017 6.69 7.965 11.707 6.548l61.651-17.461c5.017-1.417 7.965-6.661 6.548-11.679l-8.163-28.885c-1.417-5.017-6.69-7.965-11.707-6.52l-.539.142-61.141 17.291z" fill="#ff7d95" fill-rule="evenodd"/></g><g><path d="m511.266 289.705-8.163-28.883c-1.416-5.013-4.711-9.172-9.277-11.711-1.722-.957-3.544-1.637-5.413-2.037l-26.158-77.852c-1.76-5.235-7.43-8.054-12.664-6.294-5.235 1.759-8.054 7.429-6.295 12.664l25.135 74.807-43.383 12.262-37.304-111.888v-28.709c0-5.523-4.478-10-10-10s-10 4.477-10 10v28.258l-25.278 58.318h-109.998v-30.879l82.299-142.84h62.978c14.336 0 19.397 3.369 23.543 15.662l13.805 41.103c1.403 4.179 5.3 6.819 9.478 6.819 1.056 0 2.129-.169 3.185-.523 5.235-1.758 8.055-7.428 6.296-12.663l-13.808-41.114c-6.921-20.526-19.631-29.283-42.498-29.283h-243.999c-22.866 0-35.576 8.758-42.502 29.294l-68.284 203.21c-6.559 1.64-12.096 6.634-14.061 13.59l-8.164 28.861c-2.92 10.34 3.115 21.128 13.452 24.048l61.682 17.433c10.203 2.883 21.139-3.227 24.016-13.415l8.194-28.895c1.771-6.268.236-12.69-3.539-17.435l30.422-91.248 13.144 30.354c-4.64 2.681-7.777 7.686-7.777 13.419v30.528c0 5.215 2.597 9.827 6.557 12.638-22.943 59.94-25.635 111.919-25.867 171.908-3.354 2.85-5.492 7.096-5.492 11.837v30.529c0 8.546 6.953 15.499 15.499 15.499h254.117c8.546 0 15.499-6.953 15.499-15.499v-30.528c0-4.748-2.144-9-5.507-11.851-.219-61.057-2.997-113.82-27.137-175.186 1.977-2.602 3.165-5.834 3.165-9.346v-30.528c0-5.741-3.145-10.752-7.795-13.43l13.158-30.356 30.546 91.621c-3.467 4.687-4.826 10.867-3.12 16.909l8.162 28.854c2.423 8.574 10.256 14.187 18.759 14.186 1.751 0 3.53-.238 5.296-.737l61.646-17.46c10.332-2.919 16.366-13.694 13.45-24.021zm-160.103-61.066v21.528h-190.834v-21.528zm-45.466 41.531v91.114h-21.554v-91.114zm-13.886-235.249-36.066 64.019-36.065-64.019zm-211.019 277.046-60.67-17.147 7.883-27.866 60.688 17.153zm62.955-161.645v-28.258c0-5.523-4.477-10-10-10s-10 4.477-10 10v28.707l-37.312 111.914-43.383-12.262 67.148-199.828c4.15-12.305 9.211-15.674 23.547-15.674h62.979l47.459 84.245-30.301 50.705c-.927 1.551-1.416 3.323-1.416 5.13v33.639h-43.468zm23.48 119.848h45.242v165.353h-71.43c.335-57.723 3.389-107.905 26.188-165.353zm213.415 206.909h-245.115v-21.556h245.116v21.556zm-5.525-41.556h-142.649v-165.353h31.674v95.615c0 8.546 6.953 15.499 15.499 15.499h30.528c8.561 0 15.527-6.953 15.527-15.499v-95.615h23.24c22.816 57.48 25.862 107.653 26.181 165.353zm56.102-123.721-7.877-27.846 60.641-17.142.027-.009 7.863 27.819z"/><path d="m429.715 134.927.028.057c1.749 3.497 5.262 5.507 8.918 5.507 1.509 0 3.042-.342 4.484-1.063 4.939-2.47 6.928-8.505 4.458-13.445s-8.48-6.942-13.416-4.472c-4.94 2.469-6.942 8.476-4.472 13.416z"/></g></g></svg>