<?xml version="1.0"?>
<svg xmlns="http://www.w3.org/2000/svg" xmlns:xlink="http://www.w3.org/1999/xlink" viewBox="0 0 512 512" width="512" height="512"><linearGradient id="a" gradientUnits="userSpaceOnUse" x1="256" x2="256" y1="26" y2="474.071"><stop offset="0" stop-color="#00efd1"/><stop offset="1" stop-color="#00acea"/></linearGradient><linearGradient id="b" x1="256" x2="256" xlink:href="#a" y1="26" y2="474.071"/><path d="m393.012 118.983c-75.549-75.494-198.476-75.495-274.029 0-75.494 75.549-75.494 198.475 0 274.029a194.084 194.084 0 0 0 274.029 0c75.494-75.549 75.494-198.475 0-274.024zm-14.137 259.887c-67.755 67.7-178 67.7-245.745 0-67.7-67.753-67.7-178 0-245.745a174.058 174.058 0 0 1 245.745 0c67.699 67.753 67.699 177.997 0 245.745z" fill="url(#a)"/><path d="m354.392 189.352-31.744-31.744a10 10 0 0 0 -14.142 0l-52.506 52.507-52.506-52.507a10 10 0 0 0 -14.142 0l-31.744 31.744a10 10 0 0 0 0 14.142l52.506 52.506-52.506 52.506a10 10 0 0 0 0 14.142l31.744 31.744a10 10 0 0 0 14.142 0l52.506-52.507 52.506 52.507a10 10 0 0 0 14.142 0l31.744-31.744a10 10 0 0 0 0-14.142l-52.506-52.506 52.506-52.506a10 10 0 0 0 0-14.142zm-73.72 59.577a10 10 0 0 0 0 14.142l52.506 52.506-17.6 17.6-52.506-52.506a10 10 0 0 0 -14.142 0l-52.506 52.506-17.6-17.6 52.506-52.506a10 10 0 0 0 0-14.142l-52.506-52.506 17.6-17.6 52.506 52.506a10 10 0 0 0 14.142 0l52.506-52.506 17.6 17.6z" fill="url(#b)"/></svg>
