<svg height="512" viewBox="0 0 128 128" width="512" xmlns="http://www.w3.org/2000/svg"><g><g><path d="m86.186 14.743a24 24 0 0 0 -22 14.4 24 24 0 0 0 -22-14.4h-5.25v12.246a12 12 0 0 0 12 12h30.5a12 12 0 0 0 12-12v-12.246z" fill="#ff8fb8"/><path d="m48.939 38.989h30.122v8.504h-30.122z" fill="#704c55"/><path d="m79.506 47.956-.445-.463h-30.122l-.445.463c-17.883 18.632-27.869 52.465-27.869 78.291h86.75c0-25.826-9.986-59.659-27.869-78.291z" fill="#ff8fb8"/><path d="m85.2 75.816a1.751 1.751 0 0 1 -1.575-.985 77.229 77.229 0 0 0 -10.314-16.206 1.75 1.75 0 0 1 2.67-2.264 80.78 80.78 0 0 1 10.788 16.939 1.749 1.749 0 0 1 -1.569 2.516z" fill="#ff5f96"/><g fill="#fed843"><path d="m45.125 14.937v-13.19h-8.186v13h5.25a24.1 24.1 0 0 1 2.936.19z"/><path d="m83.25 14.937v-13.19h8.186v13h-5.25a24.1 24.1 0 0 0 -2.936.19z"/></g></g><g><path d="m26.164 89.728a1.749 1.749 0 0 0 2.186-1.16c.795-2.59 1.67-5.164 2.6-7.65a1.751 1.751 0 0 0 -3.279-1.227c-.954 2.552-1.852 5.194-2.668 7.85a1.751 1.751 0 0 0 1.161 2.187z"/><path d="m80.81 46.791v-6.121a13.769 13.769 0 0 0 12.375-13.681v-25.242a1.749 1.749 0 0 0 -1.75-1.747h-8.185a1.749 1.749 0 0 0 -1.75 1.75v11.682a25.748 25.748 0 0 0 -11.871 5.592 1.75 1.75 0 0 0 2.252 2.68 22.258 22.258 0 0 1 14.3-5.211h3.5v10.5a10.26 10.26 0 0 1 -10.25 10.25h-30.5a10.261 10.261 0 0 1 -10.25-10.25v-10.5h3.5a22.258 22.258 0 0 1 20.4 13.353 1.75 1.75 0 0 0 3.207-1.4 25.752 25.752 0 0 0 -18.916-15v-11.699a1.75 1.75 0 0 0 -1.747-1.747h-8.186a1.75 1.75 0 0 0 -1.75 1.75v25.239a13.762 13.762 0 0 0 12 13.626v6.175a83.7 83.7 0 0 0 -13.3 18.955 1.75 1.75 0 1 0 3.1 1.631 80.235 80.235 0 0 1 12.7-18.133h28.63c17.5 18.3 26.856 51.281 27.293 75.254h-83.221a126.342 126.342 0 0 1 2.417-21.818 1.75 1.75 0 0 0 -3.435-.679 128.048 128.048 0 0 0 -2.5 24.244 1.75 1.75 0 0 0 1.75 1.75h86.75a1.749 1.749 0 0 0 1.75-1.75c.002-24.039-8.859-59.144-28.313-79.453zm5.375-33.8c-.4 0-.79.034-1.185.052v-9.543h4.685v9.5zm-42.81-9.491v9.54c-.4-.018-.788-.044-1.186-.044h-3.5v-9.496zm7.314 42.246v-5h26.621v5z"/><path d="m85.2 75.816a1.749 1.749 0 0 0 1.569-2.516 80.78 80.78 0 0 0 -10.788-16.939 1.75 1.75 0 0 0 -2.67 2.264 77.229 77.229 0 0 1 10.309 16.206 1.751 1.751 0 0 0 1.58.985z"/></g></g></svg>