<svg id="filled_outline" height="512" viewBox="0 0 512 512" width="512" xmlns="http://www.w3.org/2000/svg" data-name="filled outline"><path d="m376 72a54.62737 54.62737 0 0 1 16 38.62737v337.37263h-88l-48-264-48 264h-88v-337.37261a54.62737 54.62737 0 0 1 16-38.62739z" fill="#548aff"/><g fill="#4f7ff7"><path d="m136 24h240v48h-240z"/><path d="m120 448h88v40h-88z"/><path d="m304 448h88v40h-88z"/></g><path d="m384 24a8.00008 8.00008 0 0 0 -8-8h-240a8.00008 8.00008 0 0 0 -8 8v44.82373a62.16765 62.16765 0 0 0 -16 41.80327v377.373a8.00008 8.00008 0 0 0 8 8h88a8.00008 8.00008 0 0 0 8-8v-39.27832l40-220 40 220v39.27832a8.00008 8.00008 0 0 0 8 8h88a8.00008 8.00008 0 0 0 8-8v-377.373a62.16765 62.16765 0 0 0 -16-41.80322zm-240 8h224v32h-72v-8h8v-16h-32v16h8v8h-48v-8h8v-16h-32v16h8v8h-72zm-16 448v-24h72v24zm128-304a8.00006 8.00006 0 0 0 -7.87109 6.56934l-46.80567 257.43066h-73.32324v-329.373a46.27509 46.27509 0 0 1 11.48364-30.627h76.51636v40h16v-40h48v40h16v-40h76.51636a46.27509 46.27509 0 0 1 11.48364 30.627v329.373h-73.32324l-46.80567-257.43066a8.00006 8.00006 0 0 0 -7.87109-6.56934zm56 304v-24h72v24z"/></svg>