<svg height="512" viewBox="0 0 64 64" width="512" xmlns="http://www.w3.org/2000/svg" xmlns:xlink="http://www.w3.org/1999/xlink"><linearGradient id="New_Gradient_Swatch_3" gradientUnits="userSpaceOnUse" x1="27.929" x2="23.131" y1="67.469" y2="-2.098"><stop offset="0" stop-color="#006df0"/><stop offset="1" stop-color="#00e7f0"/></linearGradient><linearGradient id="New_Gradient_Swatch_3-2" x1="33.81" x2="29.012" xlink:href="#New_Gradient_Swatch_3" y1="67.063" y2="-2.504"/><linearGradient id="New_Gradient_Swatch_3-3" x1="28.208" x2="23.41" xlink:href="#New_Gradient_Swatch_3" y1="67.449" y2="-2.118"/><g id="Search"><path d="m38.435 11.565a18.991 18.991 0 1 0 0 26.87 19.022 19.022 0 0 0 0-26.87zm-1.414 25.456a17 17 0 1 1 0-24.042 17.02 17.02 0 0 1 0 24.042z" fill="url(#New_Gradient_Swatch_3)"/><path d="m60.243 51.757-11.2-11.2a1 1 0 0 0 -1.415 0l-.707.707-3.086-3.087a22.992 22.992 0 0 0 -35.1-29.44 22.991 22.991 0 0 0 29.44 35.1l3.087 3.086-.707.707a1 1 0 0 0 0 1.415l11.2 11.2a6 6 0 0 0 8.486-8.486zm-50.092-11.908a21 21 0 1 1 29.7-29.7 21 21 0 1 1 -29.7 29.7zm29.629 2.76c.508-.428 1.008-.87 1.483-1.346s.918-.975 1.346-1.483l2.9 2.9-2.828 2.828zm19.049 16.22a4.007 4.007 0 0 1 -5.658 0l-10.493-10.495 5.656-5.656 10.495 10.493a4.007 4.007 0 0 1 0 5.658z" fill="url(#New_Gradient_Swatch_3-2)"/><path d="m36.532 15.458a5.006 5.006 0 0 0 -3.532-1.458h-4a1 1 0 0 0 -1 1 3 3 0 0 1 -6 0 1 1 0 0 0 -1-1h-4a4.995 4.995 0 0 0 -5 5v4a1 1 0 0 0 1 1h3v11a1 1 0 0 0 1 1h16a1 1 0 0 0 1-1v-11h3a1 1 0 0 0 1-1v-4a5.014 5.014 0 0 0 -1.468-3.542zm-.532 6.542h-2v-1a1 1 0 0 0 -2 0v13h-14v-13a1 1 0 0 0 -2 0v1h-2v-3a2.994 2.994 0 0 1 3-3h3.1a5 5 0 0 0 9.8 0h3.1a2.994 2.994 0 0 1 3 3z" fill="url(#New_Gradient_Swatch_3-3)"/></g></svg>