<svg id="Capa_1" enable-background="new 0 0 512 512" height="512" viewBox="0 0 512 512" width="512" xmlns="http://www.w3.org/2000/svg"><g><g><path d="m42.247 109.744c-14.79 65.333-34.247 178.944-34.247 324.559 0 0 61.173 42.188 218.324 26.368l29.676-124.017 29.676 124.017c157.151 15.82 218.324-26.368 218.324-26.368 0-145.615-19.457-259.226-34.247-324.558h-427.506z" fill="#90d8f9"/><g fill="#6bbef6"><path d="m8.151 412.328c-.098 7.242-.151 14.565-.151 21.975 0 0 61.173 42.188 218.324 26.368l4.198-17.545c-123.431 11.472-197.753-18.469-222.371-30.798z"/><path d="m281.477 443.125 4.198 17.545c157.152 15.821 218.325-26.367 218.325-26.367 0-7.41-.053-14.733-.15-21.975-24.619 12.329-98.941 42.27-222.373 30.797z"/></g><path d="m469.752 109.744c-4.743-20.952-9.006-36.942-11.994-47.426-2.451-8.601-10.297-14.538-19.24-14.538h-182.518-182.519c-8.943 0-16.789 5.937-19.24 14.538-2.987 10.485-7.251 26.475-11.994 47.426z" fill="#f4de7f"/><path d="m46.487 91.744c-1.352 5.515-2.773 11.519-4.24 18h427.505c-1.467-6.481-2.888-12.485-4.24-18z" fill="#eacb61"/></g><g><path d="m465.378 59.852c-3.357-11.778-14.254-20.004-26.5-20.004h-281.326c-4.151 0-7.515 3.364-7.515 7.515s3.364 7.515 7.515 7.515h281.326c5.567 0 10.52 3.74 12.046 9.094 2.704 9.488 6.11 22.224 9.838 37.962h-53.677c-4.151 0-7.515 3.364-7.515 7.515s3.364 7.515 7.515 7.515h57.122c14.7 66.278 32.401 174.683 32.758 313.404-6.105 3.342-20.901 10.428-45.799 16.423-54.34 13.082-115.712 11.38-159.372 7.309l-28.486-119.046c-.809-3.382-3.832-5.766-7.308-5.766s-6.499 2.384-7.308 5.766l-28.486 119.046c-43.66 4.069-105.032 5.773-159.372-7.309-24.91-5.998-39.709-13.088-45.799-16.422.174-66.189 4.393-131.985 12.549-195.637.527-4.116-2.383-7.882-6.499-8.409-4.118-.517-7.881 2.382-8.409 6.499-8.411 65.651-12.676 133.553-12.676 201.819 0 2.471 1.214 4.784 3.249 6.186 2.594 1.79 65.389 43.655 223.77 27.709 3.182-.32 5.812-2.618 6.556-5.728l22.425-93.717 22.426 93.717c.744 3.11 3.374 5.408 6.556 5.728 25.259 2.543 48.067 3.616 68.608 3.615 108.254-.004 152.982-29.82 155.163-31.325 2.034-1.402 3.249-3.715 3.249-6.186-.002-190.624-32.607-325.603-46.624-374.788z"/><path d="m23.315 210.264c.378.057.753.084 1.124.084 3.658 0 6.863-2.675 7.422-6.401 5.138-34.266 10.798-63.478 15.986-86.984h142.496c-5.187 13.535-10.122 30.07-12.861 48.702-.604 4.106 2.235 7.924 6.341 8.527.371.055.739.081 1.103.081 3.666 0 6.876-2.687 7.425-6.423 2.919-19.855 8.614-37.311 14.231-50.887h98.835c5.617 13.577 11.312 31.032 14.231 50.887.549 3.736 3.758 6.423 7.425 6.423.364 0 .733-.026 1.103-.081 4.107-.604 6.945-4.422 6.342-8.527-2.739-18.632-7.674-35.166-12.861-48.702h55.37c4.151 0 7.515-3.364 7.515-7.515s-3.364-7.515-7.515-7.515h-61.725c-6.593-14.203-12.27-22.691-12.75-23.398-2.33-3.432-6.995-4.327-10.429-2.002s-4.335 6.995-2.014 10.433c.09.133 3.697 5.551 8.439 14.968h-85.097c4.741-9.417 8.349-14.835 8.439-14.968 2.325-3.435 1.428-8.103-2.005-10.432-3.434-2.331-8.108-1.435-10.437 2.001-.48.707-6.157 9.195-12.75 23.398h-145.422c3.849-16.333 7.276-29.104 9.8-37.962 1.526-5.354 6.479-9.094 12.046-9.094h54.371c4.151 0 7.515-3.364 7.515-7.515s-3.364-7.515-7.515-7.515h-54.371c-12.246 0-23.143 8.226-26.5 20.004-6.582 23.099-19.184 72.243-29.624 141.867-.615 4.104 2.212 7.93 6.317 8.546z"/></g></g></svg>