<svg id="Capa_1" enable-background="new 0 0 512.002 512.002" height="512" viewBox="0 0 512.002 512.002" width="512" xmlns="http://www.w3.org/2000/svg"><g><g><g><g><path d="m303.868 317.691v-172.512c0-5.523 4.477-10 10-10h75.633c5.523 0 10 4.477 10 10l15 48.43v128.928l-15 32.743c0 12.131-4.819 23.765-13.397 32.343l-11.131 26.131-62.609 62.609c-6.392 6.392-13.945 10.917-21.98 13.574-7.873 2.603-16.209-11.587-24.37-12.57-12.016-1.447-23.653 8.218-32.875-1.004-21.604-21.604-21.913-56.535-.695-78.518l67.146-69.566c2.745-2.842 4.278-6.638 4.278-10.588z" fill="#f3eae6"/><path d="m389.501 135.179h-5v205.101c0 12.131-4.819 23.765-13.397 32.343l-88.74 88.74c-13.207 13.207-31.367 18.427-48.501 15.688 7.131 6.885 15.636-3.493 24.613-1.133 10.474 2.753 21.588 17.426 31.907 14.016 8.035-2.655 15.588-7.178 21.981-13.571l62.609-62.609 11.131-26.131c8.578-8.578 13.397-20.212 13.397-32.343l15-32.743v-128.928l-15-48.43c0-5.523-4.477-10-10-10z" fill="#e1d3ce"/><path d="m404.501 135.179h-90.633c-5.523 0-10 4.477-10 10v48.43h110.633v-48.43c0-5.523-4.477-10-10-10z" fill="#aca6d6"/><path d="m404.501 135.179h-20v58.43h30v-48.43c0-5.523-4.477-10-10-10z" fill="#978ecb"/><path d="m414.501 322.538c-2.525-.382-5.11-.582-7.742-.582-28.393 0-51.409 23.017-51.409 51.409 0 16.39 7.678 30.975 19.624 40.39l26.131-26.131c8.578-8.578 13.397-20.212 13.397-32.344v-32.742z" fill="#aca6d6"/><path d="m414.501 322.538c-2.525-.382-5.11-.582-7.742-.582-7.974 0-15.523 1.816-22.258 5.056v13.269c0 12.131-4.819 23.765-13.397 32.343l-14.003 14.004c2.904 10.882 9.272 20.35 17.872 27.127l17.421-17.42 8.71-8.711c8.578-8.578 13.397-20.212 13.397-32.344z" fill="#978ecb"/><path d="m293.341 470.151c0 6.88-1.04 13.52-2.96 19.77-5.72 1.89-11.69 2.84-17.66 2.84-13.61 0-27.21-4.93-37.91-14.8-.32-.3-.63-.6-.94-.9l-.01-.01c-.239-.23-.483-.453-.72-.69-19.98-19.97-21.73-51.33-5.12-73.32 30.24.81 55.5 21.6 63.02 49.66 1.5 5.56 2.3 11.41 2.3 17.45z" fill="#aca6d6"/><path d="m293.341 470.151c0 6.88-1.04 13.52-2.96 19.77-5.72 1.89-11.69 2.84-17.66 2.84-13.61 0-27.21-4.93-37.91-14.8-.32-.3-.63-.6-.94-.9l-.01-.01c2.99.5 5.97.75 8.91.75 17.8 0 34.53-9.04 48.26-25.11 0 .01.01.01.01.01 1.5 5.56 2.3 11.41 2.3 17.45z" fill="#978ecb"/><path d="m359.184 142.151c-6.097 0-11.273-4.47-12.16-10.503l-8.634-58.71c-1.091-7.42 4.66-14.079 12.16-14.079h17.268c7.5 0 13.251 6.659 12.16 14.079l-8.634 58.71c-.887 6.032-6.062 10.503-12.16 10.503z" fill="#a79ba7"/></g><g><path d="m94.637 317.691v-172.512c0-5.523 4.477-10 10-10h75.633c5.523 0 10 4.477 10 10l15 48.43v128.928l-15 32.743c0 12.131-4.819 23.765-13.397 32.343l-11.131 26.131-62.609 62.609c-6.392 6.392-13.945 10.917-21.98 13.574-7.873 2.603-16.209-11.587-24.37-12.57-12.016-1.447-23.653 8.218-32.875-1.004-21.604-21.604-21.913-56.535-.695-78.518l67.146-69.566c2.745-2.842 4.278-6.638 4.278-10.588z" fill="#f3eae6"/><path d="m180.271 135.179h-5v205.101c0 12.131-4.819 23.765-13.397 32.343l-88.74 88.74c-13.207 13.207-31.367 18.427-48.501 15.688 7.131 6.885 15.636-3.493 24.613-1.133 10.473 2.753 21.588 17.426 31.907 14.016 8.035-2.655 15.588-7.178 21.981-13.571l62.609-62.609 11.131-26.131c8.578-8.578 13.397-20.212 13.397-32.343l15-32.743v-128.928l-15-48.43c0-5.523-4.477-10-10-10z" fill="#e1d3ce"/><path d="m195.271 135.179h-90.633c-5.523 0-10 4.477-10 10v48.43h110.633v-48.43c0-5.523-4.477-10-10-10z" fill="#aca6d6"/><path d="m195.271 135.179h-20v58.43h30v-48.43c0-5.523-4.477-10-10-10z" fill="#978ecb"/><path d="m205.271 322.538c-2.525-.382-5.11-.582-7.742-.582-28.393 0-51.409 23.017-51.409 51.409 0 16.39 7.678 30.975 19.624 40.39l26.131-26.131c8.578-8.578 13.397-20.212 13.397-32.344v-32.742z" fill="#aca6d6"/><path d="m205.271 322.538c-2.525-.382-5.11-.582-7.742-.582-7.974 0-15.523 1.816-22.258 5.056v13.269c0 12.131-4.819 23.765-13.397 32.343l-14.003 14.004c2.904 10.882 9.272 20.35 17.872 27.127l17.421-17.42 8.71-8.711c8.578-8.578 13.397-20.212 13.397-32.344z" fill="#978ecb"/><path d="m84.111 470.151c0 6.88-1.04 13.52-2.96 19.77-5.72 1.89-11.69 2.84-17.66 2.84-13.83 0-27.65-5.08-38.42-15.27-.04-.05-.08-.09-.13-.12-.34-.33-.69-.67-1.03-1.01-19.98-19.97-21.73-51.33-5.12-73.32 30.25.81 55.51 21.61 63.03 49.68 1.5 5.56 2.29 11.401 2.29 17.43z" fill="#aca6d6"/><path d="m84.111 470.151c0 6.88-1.04 13.52-2.96 19.77-5.72 1.89-11.69 2.84-17.66 2.84-13.83 0-27.65-5.08-38.42-15.27-.04-.05-.08-.09-.13-.12-.1-.11-.2-.21-.3-.31-.01 0-.01-.01-.01-.01 2.99.5 5.97.75 8.91.75 17.8 0 34.53-9.04 48.26-25.11 0 .01.01.02.02.03 1.5 5.56 2.29 11.401 2.29 17.43z" fill="#978ecb"/><path d="m149.954 142.151c-6.097 0-11.273-4.47-12.16-10.503l-8.634-58.71c-1.091-7.42 4.66-14.079 12.16-14.079h17.268c7.5 0 13.251 6.659 12.16 14.079l-8.634 58.71c-.887 6.032-6.063 10.503-12.16 10.503z" fill="#a79ba7"/></g></g></g><path d="m91.334 476.508c3.138-37.198-21.584-70.717-57.342-79.034l61.768-63.993c4.114-4.266 6.381-9.873 6.381-15.787v-53.012c0-4.142-3.357-7.5-7.5-7.5s-7.5 3.358-7.5 7.5v53.012c0 2.009-.773 3.918-2.176 5.372l-67.151 69.57c-23.872 24.74-23.876 64.36.794 89.031 24.262 24.263 65.498 24.619 89.827 0l62.586-62.586 26.154-26.154c10.057-10.057 15.596-23.426 15.596-37.643v-210.11c0-9.649-7.851-17.5-17.5-17.5h-24.991l6.006-40.844c25.925 4.147 52.309 6.284 78.548 6.344 26.082.06 52.3-1.944 78.083-5.921l5.944 40.421h-24.989c-9.649 0-17.5 7.851-17.5 17.5v48.357c0 .026-.004.052-.004.078s.004.051.004.078v124.007c0 2.009-.773 3.917-2.177 5.372l-67.149 69.57c-23.891 24.753-23.882 64.357.792 89.031 24.259 24.259 65.498 24.621 89.828 0l62.58-62.58c.02-.02.04-.04.059-.06l26.1-26.1c10.058-10.058 15.597-23.427 15.597-37.643v-210.11c0-9.649-7.851-17.5-17.5-17.5h-24.992l7.624-51.842c42.519-11.398 83.237-28.136 121.095-49.82 3.595-2.059 4.839-6.642 2.78-10.236-2.059-3.595-6.641-4.839-10.235-2.781-36.286 20.785-75.283 36.892-116.004 47.945-3.556-5.914-10.046-9.591-16.951-9.582h-17.268c-11.286-.068-20.512 9.846-19.744 21.042-25.068 3.879-50.565 5.845-75.938 5.774-25.561-.059-51.258-2.165-76.507-6.221.509-11.037-8.727-20.656-19.773-20.595h-17.269c-6.63-.004-12.893 3.376-16.531 8.921-39.873-11.044-78.048-26.929-113.558-47.281-3.594-2.061-8.177-.816-10.236 2.777-2.06 3.594-.816 8.177 2.777 10.236 36.924 21.163 76.638 37.633 118.116 49.024l7.741 52.64h-24.989c-9.649 0-17.5 7.851-17.5 17.5v48.357c0 .026-.004.052-.004.078s.004.051.004.078v40.995c0 4.142 3.357 7.5 7.5 7.5s7.5-3.358 7.5-7.5v-33.573h95.63v113.351c-.081 0-.162-.004-.242-.004-32.482 0-58.909 26.427-58.909 58.909 0 15.329 5.862 29.728 16.284 40.621zm-16.326 7.399c-16.368 3.97-33.864-.917-45.793-12.846-15.943-15.942-18.753-41.398-6.688-60.274 29.997 2.617 54.085 28.953 54.085 59.36 0 4.659-.543 9.27-1.604 13.76zm122.763-128.622c0 10.211-3.979 19.813-11.203 27.037l-21.057 21.057c-7.614-8.09-11.891-18.715-11.891-30.014 0-24.211 19.697-43.909 43.909-43.909.081 0 .162.004.242.004zm-61.209-284.743c.01-.059.025-.119.034-.179.182-1.102.718-1.903 1.099-2.344.535-.62 1.718-1.66 3.626-1.66h17.268c1.907 0 3.09 1.04 3.626 1.659.535.62 1.392 1.941 1.114 3.829l-8.634 58.71c-.344 2.334-2.382 4.094-4.74 4.094-2.359 0-4.396-1.76-4.74-4.094l-8.634-58.711c-.07-.47-.068-.906-.019-1.304zm58.709 72.133c1.379 0 2.5 1.122 2.5 2.5v40.935h-95.63v-40.935c0-1.378 1.121-2.5 2.5-2.5h30.292c3.669 4.276 9.094 6.976 15.021 6.976s11.352-2.7 15.02-6.976zm151.654-74.656c.535-.62 1.718-1.66 3.626-1.66h17.268c1.907 0 3.09 1.04 3.626 1.659.535.62 1.392 1.941 1.114 3.829l-8.634 58.71c-.344 2.334-2.382 4.094-4.74 4.094-2.359 0-4.396-1.76-4.74-4.094l-8.634-58.711c-.278-1.886.579-3.208 1.114-3.827zm-62.687 415.888c-16.368 3.97-33.865-.917-45.794-12.846-15.943-15.942-18.752-41.397-6.687-60.274 29.992 2.616 54.085 28.953 54.085 59.36.001 4.657-.543 9.268-1.604 13.76zm16.326-7.398c3.14-37.192-21.578-70.716-57.342-79.034l61.766-63.992c4.116-4.266 6.383-9.873 6.383-15.788v-116.585h95.63v113.351c-.081 0-.162-.004-.242-.004-13.263 0-25.788 4.305-36.222 12.449-3.265 2.549-3.846 7.262-1.297 10.527 2.564 3.285 7.284 3.829 10.527 1.297 7.772-6.066 17.104-9.273 26.991-9.273.081 0 .162.004.242.004v25.824c0 10.21-3.978 19.812-11.204 27.037l-21.057 21.057c-7.614-8.09-11.891-18.714-11.891-30.013 0-5.49.998-10.841 2.968-15.906 1.501-3.86-.412-8.207-4.272-9.708-3.859-1.499-8.207.412-9.708 4.272-2.646 6.805-3.987 13.985-3.987 21.342 0 15.328 5.862 29.727 16.284 40.621zm103.937-333.834c1.379 0 2.5 1.122 2.5 2.5v40.935h-95.63v-40.935c0-1.378 1.121-2.5 2.5-2.5h30.292c3.669 4.276 9.094 6.976 15.021 6.976s11.352-2.7 15.02-6.976z"/></g></svg>