<svg height="512" viewBox="0 0 128 128" width="512" xmlns="http://www.w3.org/2000/svg"><g><g><path d="m102.975 24.077-7.225-3.325-10.818-5.892a21.376 21.376 0 0 1 -41.864 0l-10.818 5.892-7.226 3.325a40 40 0 0 0 -23.274 36.336v25.646h16.313v-27.77a15 15 0 0 1 8.37-13.455l5.817-2.867v62.279a4 4 0 0 0 4 4h55.5a4 4 0 0 0 4-4v-62.279l5.817 2.867a15 15 0 0 1 8.37 13.455v27.77h16.313v-25.646a40 40 0 0 0 -23.275-36.336z" fill="#ff8fb8"/><g fill="#fed843"><path d="m109.937 86.059h16.313v9.011h-16.313z"/><path d="m1.75 86.059h16.313v9.011h-16.313z"/><path d="m36.375 108.246h55.25v9.011h-55.25z"/><path d="m77.375 10.743h-.011a13.366 13.366 0 0 1 -26.728 0h-.008l-7.56 4.117a21.376 21.376 0 0 0 41.864 0z"/></g><path d="m64 23.9a13.385 13.385 0 0 0 13.364-13.16h-26.728a13.385 13.385 0 0 0 13.364 13.16z" fill="#704c55"/></g><g><path d="m103.707 22.488-7.172-3.3-10.762-5.863-7.561-4.118c-.025-.014-.054-.019-.079-.031a1.74 1.74 0 0 0 -.758-.182h-26.747a1.75 1.75 0 0 0 -.837.213l-7.56 4.116-10.766 5.863-7.172 3.3a41.866 41.866 0 0 0 -24.293 37.927v34.656a1.749 1.749 0 0 0 1.75 1.75h16.313a1.749 1.749 0 0 0 1.75-1.75v-36.78a13.167 13.167 0 0 1 7.393-11.889l3.294-1.619v7.219a1.75 1.75 0 0 0 3.5 0v-10.033a1.749 1.749 0 0 0 -2.523-1.567l-5.818 2.866a16.645 16.645 0 0 0 -9.346 15.025v26.02h-12.813v-23.9a38.358 38.358 0 0 1 22.256-34.744l7.225-3.326c.037-.016.072-.034.106-.052l8.863-4.827a23.219 23.219 0 0 0 22.05 16.191 1.75 1.75 0 0 0 0-3.5 19.706 19.706 0 0 1 -18.916-14.4l1.457-.793 2.644-1.44a15.112 15.112 0 0 0 29.63 0l4.1 2.233a19.835 19.835 0 0 1 -8.131 11.161 1.75 1.75 0 0 0 1.93 2.92 23.375 23.375 0 0 0 9.34-12.371l8.858 4.824a1.164 1.164 0 0 0 .106.053l7.225 3.326a38.358 38.358 0 0 1 22.257 34.747v23.9h-12.814v-26.024a16.646 16.646 0 0 0 -9.345-15.025l-5.818-2.864a1.749 1.749 0 0 0 -2.523 1.567v62.28a2.253 2.253 0 0 1 -2.25 2.25h-55.5a2.253 2.253 0 0 1 -2.25-2.25v-16.224a1.75 1.75 0 0 0 -3.5 0v16.224a5.758 5.758 0 0 0 4.125 5.512v7.5a1.749 1.749 0 0 0 1.75 1.75h55.25a1.749 1.749 0 0 0 1.75-1.75v-7.5a5.758 5.758 0 0 0 4.125-5.512v-59.466l3.294 1.623a13.167 13.167 0 0 1 7.392 11.885v36.78a1.75 1.75 0 0 0 1.75 1.75h16.314a1.749 1.749 0 0 0 1.75-1.75v-34.656a41.866 41.866 0 0 0 -24.293-37.925zm-87.394 65.321v5.51h-12.813v-5.51zm47.687-65.656a11.672 11.672 0 0 1 -11.433-9.659h22.866a11.672 11.672 0 0 1 -11.433 9.659zm-25.875 93.353v-5.506h51.75v5.509zm86.375-22.187h-12.814v-5.51h12.814z"/><path d="m32.25 74.375a1.75 1.75 0 0 0 1.75-1.75v-5.225a1.75 1.75 0 0 0 -3.5 0v5.227a1.75 1.75 0 0 0 1.75 1.748z"/></g></g></svg>