<svg id="Capa_1" enable-background="new 0 0 512.003 512.003" height="512" viewBox="0 0 512.003 512.003" width="512" xmlns="http://www.w3.org/2000/svg"><g><g><g><path d="m369.965 243.164 43.171 32.582c4.377 3.304 10.611 2.293 13.731-2.226l39.163-56.716c2.485-3.599 2.26-8.424-.549-11.773l-66.556-79.359z" fill="#57be92"/><path d="m142.038 494.804v-246.91c0-3.142-.38-6.272-1.132-9.321l-27.829-112.901 70.523-29.089h144.801l70.523 29.089-27.829 112.901c-.752 3.049-1.132 6.18-1.132 9.321v246.91c0 5.355-4.322 9.696-9.653 9.696h-208.62c-5.33.001-9.652-4.341-9.652-9.696z" fill="#7acaa6"/><g fill="#57be92"><path d="m368.338 113.055-25.154 106.245c-2.138 9.031-3.218 18.281-3.218 27.563v102.048c0 77.324-63.265 140.589-140.589 140.589h-57.338v5.304c0 5.355 4.322 9.696 9.653 9.696h208.62c5.331 0 9.653-4.341 9.653-9.696v-246.91c0-3.142.38-6.272 1.132-9.322l27.828-112.9z"/><path d="m142.038 243.164-43.171 32.582c-4.377 3.304-10.611 2.293-13.731-2.226l-39.163-56.716c-2.485-3.599-2.26-8.424.549-11.773l66.556-79.359z"/><path d="m328.402 96.582h-144.801l-.296.122c.601 25.65 32.907 46.327 72.696 46.327s72.095-20.677 72.696-46.327z"/></g></g><g><g><g fill="#a79ba7"><path d="m368.992 130.147c-6.097 0-11.273-4.47-12.16-10.503l-8.634-58.71c-1.091-7.42 4.66-14.079 12.16-14.079h17.268c7.5 0 13.251 6.659 12.16 14.079l-8.634 58.71c-.887 6.033-6.062 10.503-12.16 10.503z"/><path d="m143.011 130.147c6.097 0 11.273-4.47 12.16-10.503l8.634-58.71c1.091-7.42-4.66-14.079-12.16-14.079h-17.268c-7.5 0-13.251 6.659-12.16 14.079l8.634 58.71c.887 6.033 6.062 10.503 12.16 10.503z"/></g></g></g></g><path d="m511.155 4.042c-1.911-3.674-6.439-5.103-10.114-3.193-35.121 18.268-72.525 32.618-111.233 42.708-3.451-2.697-7.725-4.2-12.181-4.2h-17.269c-5.756 0-11.215 2.498-14.978 6.854-1.93 2.235-3.308 4.842-4.082 7.619-28.135 4.595-56.796 6.923-85.291 6.923h-.154c-28.394-.008-57.009-2.334-85.146-6.915-.774-2.78-2.152-5.39-4.085-7.627-3.763-4.356-9.222-6.854-14.977-6.854h-17.269c-4.456 0-8.731 1.503-12.182 4.201-38.709-10.086-76.113-24.436-111.23-42.709-3.675-1.912-8.202-.484-10.116 3.192-1.912 3.674-.483 8.203 3.191 10.115 34.991 18.207 72.18 32.637 110.657 42.948-.168 1.623-.143 3.275.099 4.923l7.601 51.687-12.062 4.979c-.984.434-1.913.909-3 2.16l-66.562 79.36c-4.958 5.912-5.36 14.483-.975 20.851l39.166 56.729c5.419 7.67 15.562 10.068 24.425 3.947l31.151-23.515v104.206c0 4.142 3.358 7.5 7.5 7.5 4.143 0 7.5-3.358 7.5-7.5v-114.538c-.003-3.71-.474-7.521-1.357-11.115l-26.276-106.635 4.364-1.801c3.545 5.607 9.797 9.307 16.738 9.307 9.745 0 18.163-7.27 19.58-16.911l1.154-7.848 13.728-5.664c7.493 24.97 39.488 43.309 78.529 43.309s71.035-18.339 78.529-43.309l13.728 5.664 1.154 7.848c1.417 9.641 9.835 16.912 19.58 16.912 6.941 0 13.194-3.7 16.738-9.307l4.365 1.801-26.269 106.616c-.891 3.657-1.358 7.389-1.362 11.133v246.91c0 1.213-.965 2.2-2.15 2.2h-208.62c-1.186 0-2.15-.987-2.15-2.2v-102.372c0-4.142-3.357-7.5-7.5-7.5-4.142 0-7.5 3.358-7.5 7.5v102.372c0 9.484 7.693 17.2 17.15 17.2h208.619c9.457 0 17.15-7.716 17.15-17.2v-236.578l31.157 23.518c7.634 5.809 19.003 3.964 24.425-3.959l39.165-56.727c4.381-6.36 3.978-14.932-.98-20.844l-29.607-35.3c-2.662-3.174-7.394-3.589-10.565-.927-3.174 2.662-3.589 7.393-.927 10.566l29.606 35.3c.64.762.689 1.871.125 2.689l-39.154 56.712c-.802 1.094-1.953 1.296-3.056.513l-39.217-29.602 24.236-98.353 10.57 12.603c2.673 3.186 7.408 3.575 10.565.927 3.174-2.662 3.589-7.393.927-10.566l-20.063-23.922c-.605-.696-1.589-1.611-2.999-2.16l-12.063-4.979 7.601-51.688c.242-1.648.268-3.3.099-4.924 38.474-10.315 75.663-24.745 110.656-42.946 3.675-1.911 5.105-6.44 3.193-10.114zm-377.585 236.122-39.211 29.598c-1.101.781-2.256.586-3.056-.501l-39.155-56.713c-.568-.826-.52-1.934.119-2.696l57.067-68.041zm22.825-180.445c-.002.03-.005.06-.007.089-.002.012-.001.023-.003.036l-8.635 58.711c-.344 2.333-2.381 4.093-4.74 4.093-2.358 0-4.396-1.76-4.74-4.094l-8.634-58.71c-.277-1.888.579-3.21 1.114-3.829.536-.62 1.719-1.659 3.626-1.659h17.269c1.907 0 3.09 1.04 3.626 1.659.523.606 1.345 1.886 1.124 3.704zm99.607 75.815c-23.755 0-55.642-9.148-63.772-31.451h127.543c-8.448 21.892-39.66 31.451-63.771 31.451zm75.26-45.884c-.907-.374-1.879-.567-2.86-.567h-144.801c-.981 0-1.953.193-2.86.567l-14.456 5.964 3.923-26.67c28.315 4.507 57.085 6.801 85.641 6.809h.158c28.652 0 57.472-2.296 85.787-6.815l3.923 26.677zm51.105-29.806-8.634 58.71c-.344 2.334-2.382 4.094-4.74 4.094-2.359 0-4.397-1.76-4.74-4.094l-8.635-58.71c-.002-.014-.001-.026-.003-.04-.002-.038-.006-.076-.009-.113-.209-1.804.606-3.074 1.126-3.676.536-.62 1.719-1.659 3.626-1.659h17.269c1.907 0 3.09 1.04 3.626 1.659.535.62 1.391 1.942 1.114 3.829z"/></g></svg>