<svg id="Capa_1" enable-background="new 0 0 511.999 511.999" height="512" viewBox="0 0 511.999 511.999" width="512" xmlns="http://www.w3.org/2000/svg"><g><g><path clip-rule="evenodd" d="m43.349 120.379 212.183 18.109 212.184-18.109v-51.81c0-8.772-7.187-15.959-15.958-15.959h-392.422c-8.8 0-15.987 7.187-15.987 15.959z" fill="#eff6ff" fill-rule="evenodd"/></g><g><path clip-rule="evenodd" d="m39.897 459.389h192.632l23.004-150.901 23.004 150.901h192.632 32.426c-18.194-171.953-22.155-209.246-32.03-302.82l-207.713-12.422-224.323 12.422c-2.116 19.964-4.221 39.836-6.351 59.957-2.007 18.958 15.496 41.573 13.414 61.256-2.864 27.073-25.36 51.664-28.502 81.385-3.303 31.25-6.803 64.371-10.591 100.222z" fill="#a6e0fa" fill-rule="evenodd"/></g><g><path clip-rule="evenodd" d="m100.816 325.664c17.854-5.744 27.672-24.9 21.929-42.755-5.744-17.883-24.9-27.701-42.782-21.957s-27.701 24.9-21.929 42.783c5.744 17.882 24.9 27.701 42.782 21.929z" fill="#fde588" fill-rule="evenodd"/></g><g><path clip-rule="evenodd" d="m144.107 345.244c15.364-1.047 29.823-9.904 37.378-24.617 11.459-22.354 2.631-49.744-19.722-61.204-1.641-.821-3.31-1.556-5.008-2.179 3.367-19.128-5.857-39.02-24.022-48.329-18.561-9.507-40.575-5.037-54.1 9.536-1.443-.99-2.971-1.896-4.584-2.716-11.912-6.112-29.568-7.668-40.858.792l-15.109 142.639c11.629 6.508 26.71 4.669 37.038 1.075 3.424 11.488 11.318 21.59 22.834 27.503 22.325 11.46 49.714 2.632 61.174-19.722 3.763-7.3 5.319-15.138 4.979-22.778zm-21.362-62.335c5.744 17.855-4.074 37.011-21.929 42.755-17.882 5.772-37.038-4.046-42.782-21.929-5.772-17.883 4.046-37.039 21.929-42.783 17.882-5.745 37.038 4.074 42.782 21.957z" fill="#fe8d94" fill-rule="evenodd"/></g><g><path clip-rule="evenodd" d="m399.384 313.355c8.573 16.723 29.059 23.316 45.781 14.742 8.602-4.414 14.515-11.969 17.062-20.543 7.724 2.66 17.203 2.575 25.211-.821l-11.544-109.052c-8.517-3.028-19.156-2.66-27.814 1.783-1.217.622-2.348 1.302-3.452 2.009-10.073-10.894-26.569-14.233-40.433-7.13-13.61 6.989-20.514 21.844-17.996 36.162-1.245.453-2.49.99-3.735 1.641-16.694 8.545-23.315 29.06-14.742 45.754 5.659 11.007 16.468 17.628 27.955 18.42-.254 5.717.934 11.574 3.707 17.035zm29.342-33.672c-12.28-3.961-19.014-17.091-15.053-29.343 3.933-12.28 17.09-19.015 29.342-15.053 12.252 3.933 18.986 17.091 15.053 29.343-3.962 12.252-17.09 18.986-29.342 15.053z" fill="#fe8d94" fill-rule="evenodd"/></g><g><path clip-rule="evenodd" d="m428.726 279.683c12.252 3.933 25.381-2.801 29.342-15.053 3.933-12.252-2.801-25.41-15.053-29.343-12.252-3.961-25.409 2.773-29.342 15.053-3.961 12.253 2.773 25.382 15.053 29.343z" fill="#fde588" fill-rule="evenodd"/></g><g><path clip-rule="evenodd" d="m366.986 459.389h43.716c5.121-9.422 3.678-21.476-4.273-29.456-9.733-9.705-25.465-9.705-35.171 0-7.978 7.98-9.393 20.033-4.272 29.456z" fill="#fde588" fill-rule="evenodd"/></g><g><path clip-rule="evenodd" d="m419.7 120.379h48.016v-51.81c0-8.772-7.187-15.959-15.958-15.959h-48.045c8.8 0 15.987 7.187 15.987 15.959z" fill="#d9eeff" fill-rule="evenodd"/></g><g><path clip-rule="evenodd" d="m448.08 199.465c8.658-4.442 19.297-4.81 27.814-1.783l-4.329-41.114h-48.045l3.678 34.889c6.593 1.471 12.733 4.923 17.43 10.017 1.103-.707 2.235-1.387 3.452-2.009z" fill="#75cef9" fill-rule="evenodd"/></g><g><path clip-rule="evenodd" d="m462.227 307.554c7.724 2.66 17.203 2.575 25.211-.821l-11.544-109.052c-8.517-3.028-19.156-2.66-27.814 1.783-1.217.622-2.348 1.302-3.452 2.009-4.697-5.093-10.837-8.545-17.43-10.017l4.584 43.066c3.622-.651 7.47-.453 11.233.764 12.252 3.933 18.986 17.091 15.053 29.343-3.112 9.621-11.856 15.846-21.391 16.157l5.15 48.81c1.132-.453 2.235-.934 3.339-1.5 8.601-4.413 14.515-11.968 17.061-20.542z" fill="#ff6d75" fill-rule="evenodd"/></g><g><path clip-rule="evenodd" d="m436.677 280.787c9.535-.311 18.279-6.536 21.391-16.157 3.933-12.252-2.801-25.41-15.053-29.343-3.763-1.217-7.611-1.415-11.233-.764z" fill="#fdd76f" fill-rule="evenodd"/></g><g><path clip-rule="evenodd" d="m471.168 459.389h32.426l-16.156-152.655c-8.007 3.395-17.486 3.48-25.211.821-2.547 8.574-8.46 16.129-17.062 20.543-1.103.566-2.207 1.047-3.339 1.5l9.252 87.547 3.112 29.286 1.358 12.959h15.62z" fill="#75cef9" fill-rule="evenodd"/></g><g><path clip-rule="evenodd" d="m39.529 156.569h432.035l-3.848-36.19c-141.446 0-282.921 0-424.367 0z" fill="#ffbc85" fill-rule="evenodd"/></g><g><path clip-rule="evenodd" d="m423.52 156.569h48.044l-3.848-36.19h-48.016z" fill="#f5a96c" fill-rule="evenodd"/></g><g><path clip-rule="evenodd" d="m371.259 429.933c9.705-9.705 25.437-9.705 35.171 0 7.951 7.979 9.394 20.033 4.273 29.456h34.378c6.876-5.942 11.233-14.742 11.233-24.561 0-17.939-14.544-32.483-32.483-32.483-1.273 0-2.547.085-3.792.226-3.82-13.667-16.383-23.684-31.266-23.684-14.6 0-26.937 9.621-31.04 22.863-1.273-.141-2.575-.226-3.905-.226-17.939 0-32.454 14.544-32.454 32.483 0 10.271 4.754 19.439 12.195 25.381h33.416c-5.12-9.422-3.705-21.475 4.274-29.455z" fill="#fe8d94" fill-rule="evenodd"/></g><g><path d="m71.443 330.239c5.944 3.049 12.389 4.591 18.882 4.591 4.285 0 8.593-.672 12.788-2.026 10.542-3.392 19.134-10.691 24.19-20.554 5.057-9.859 5.973-21.095 2.581-31.638-3.392-10.555-10.691-19.154-20.556-24.215-9.859-5.059-21.104-5.977-31.66-2.586-10.555 3.391-19.152 10.688-24.21 20.55-5.061 9.867-5.97 21.117-2.564 31.667 3.39 10.555 10.688 19.153 20.549 24.211zm-4.638-49.033c3.228-6.292 8.715-10.95 15.451-13.114 2.675-.859 5.418-1.285 8.148-1.285 4.154 0 8.277.986 12.077 2.936 6.298 3.231 10.958 8.721 13.122 15.459 0 .001.001.002.001.003 2.165 6.73 1.579 13.904-1.649 20.2s-8.71 10.955-15.443 13.121c-6.744 2.177-13.928 1.596-20.224-1.634-6.293-3.228-10.949-8.715-13.116-15.461-2.176-6.744-1.596-13.926 1.633-20.225z"/><path d="m445.323 228.151c-7.841-2.535-16.195-1.859-23.529 1.903-7.328 3.76-12.749 10.151-15.263 17.996-2.527 7.831-1.851 16.174 1.905 23.495 3.755 7.321 10.144 12.747 17.997 15.28 3.116 1 6.277 1.476 9.39 1.476 13.021 0 25.167-8.329 29.387-21.378 5.196-16.191-3.732-33.585-19.887-38.772zm5.609 34.171c-2.685 8.298-11.621 12.882-19.903 10.223-4.034-1.301-7.318-4.088-9.247-7.848-1.926-3.754-2.271-8.034-.973-12.05.002-.006.004-.013.006-.019 1.288-4.023 4.068-7.301 7.826-9.229 2.263-1.161 4.716-1.749 7.189-1.749 1.638 0 3.284.257 4.892.777 8.296 2.664 12.873 11.596 10.21 19.895z"/><path d="m511.958 458.571-5.348-50.508c-.435-4.119-4.119-7.105-8.248-6.669-4.119.437-7.104 4.129-6.668 8.248l4.471 42.226-36.183.021c2.49-5.274 3.831-11.086 3.831-17.061 0-21.591-17.201-39.239-38.619-39.96-6.383-14.076-20.604-23.48-36.421-23.48-15.641 0-29.485 8.896-36.056 22.651-21.519.592-38.843 18.294-38.843 39.969 0 6.323 1.472 12.414 4.202 17.881h-33.096l-21.947-143.968v-47.989c0-4.142-3.357-7.5-7.5-7.5s-7.5 3.358-7.5 7.5v47.989l-21.947 143.968h-210.251l8.698-82.254c9.689 2.354 19.341 1.191 25.993-.313 4.91 10.806 13.241 19.568 24.003 25.095 7.585 3.894 15.809 5.864 24.097 5.864 5.458 0 10.945-.855 16.291-2.579 13.461-4.339 24.43-13.665 30.878-26.243 3.154-6.12 5.071-12.811 5.661-19.655 15.638-3.175 29.323-13.381 36.703-27.755 13.323-25.99 3.018-57.975-23.04-71.333-.088-.044-.177-.088-.265-.132 1.322-20.887-9.707-40.609-28.702-50.344-19.196-9.833-42.458-6.886-58.591 6.867-.029-.015-.059-.03-.088-.045-9.645-4.949-23.232-7.615-35.466-4.676l4.264-40.318h145.505c1.433 14.801 4.591 29.688 9.491 44.612 1.037 3.159 3.972 5.162 7.125 5.162.775 0 1.563-.121 2.341-.376 3.936-1.292 6.078-5.53 4.786-9.465-4.388-13.363-7.273-26.688-8.66-39.933h97.354c-1.389 13.24-4.277 26.565-8.667 39.933-1.292 3.936.851 8.173 4.786 9.465.777.255 1.565.376 2.341.376 3.153 0 6.088-2.004 7.125-5.162 4.902-14.929 8.062-29.817 9.498-44.612h145.658l2.657 24.271c-7.502-.598-15.17.728-21.889 3.925-12.57-10.107-30.264-12.119-44.956-4.592-14.521 7.458-23.108 22.343-22.57 38.246-9.433 5.1-16.417 13.502-19.72 23.757-3.401 10.557-2.487 21.798 2.575 31.655 5.666 11.02 15.627 18.723 27.395 21.468.588 4.833 2.025 9.571 4.264 13.979 5.061 9.871 13.658 17.178 24.21 20.575 4.187 1.348 8.482 2.017 12.759 2.017 6.5 0 12.956-1.545 18.91-4.598 8.015-4.113 14.305-10.51 18.204-18.39 4.888.772 9.957.708 14.818-.166l6.548 59.811c.45 4.117 4.149 7.084 8.271 6.639 4.117-.451 7.09-4.154 6.639-8.272l-27.854-254.42v-51.404c0-12.935-10.523-23.458-23.459-23.458h-179.19c-4.143 0-7.5 3.358-7.5 7.5s3.357 7.5 7.5 7.5h179.191c4.664 0 8.459 3.794 8.459 8.458v44.31h-142.947c-1.733-9.685-4.228-19.302-7.504-28.836-1.346-3.917-5.613-6.002-9.53-4.655-3.917 1.346-6.002 5.613-4.655 9.53 2.724 7.925 4.862 15.916 6.426 23.961h-92.935c1.563-8.045 3.698-16.037 6.417-23.965 1.344-3.918-.743-8.184-4.662-9.527-3.913-1.343-8.184.743-9.527 4.661-3.27 9.535-5.76 19.151-7.491 28.832h-142.959v-44.31c0-4.664 3.807-8.458 8.486-8.458h179.56c4.143 0 7.5-3.358 7.5-7.5s-3.357-7.5-7.5-7.5h-179.559c-12.95 0-23.486 10.523-23.486 23.458v51.418l-35.808 338.612c-.224 2.114.461 4.225 1.883 5.805s3.449 2.483 5.575 2.483h225.029c3.706 0 6.855-2.707 7.414-6.37l15.59-102.264 15.59 102.264c.559 3.663 3.708 6.37 7.414 6.37l225.969-.028c2.126-.002 4.15-.905 5.572-2.486 1.421-1.58 2.103-3.69 1.88-5.803zm-47.289-158.108c-1.932-.666-4.054-.514-5.873.422-1.818.936-3.176 2.573-3.758 4.533-2.075 6.986-6.798 12.67-13.294 16.004-6.305 3.233-13.488 3.82-20.227 1.65-6.736-2.169-12.227-6.835-15.445-13.114-2.103-4.139-3.105-8.739-2.902-13.304.182-4.067-2.915-7.536-6.977-7.816-9.356-.645-17.507-6.016-21.799-14.364-3.229-6.287-3.811-13.46-1.64-20.2 2.172-6.743 6.834-12.23 13.184-15.481.898-.47 1.823-.875 2.825-1.24 3.42-1.245 5.452-4.764 4.822-8.347-2.025-11.511 3.615-22.84 14.027-28.187 10.541-5.398 23.496-3.117 31.508 5.547 2.468 2.669 6.494 3.183 9.553 1.223 1.073-.688 1.97-1.211 2.83-1.651 5.278-2.708 11.789-3.57 17.786-2.475l10.684 97.585c-5.017 1.093-10.552.851-15.304-.785zm-3.676-172.584 2.32 21.19h-143.15c.126-7.091-.155-14.156-.832-21.19zm-156.742 0c.734 7.029 1.031 14.095.894 21.19h-99.214c-.135-7.094.162-14.159.896-21.19zm-112.505 0c-.677 7.035-.959 14.1-.834 21.19h-143.054l2.241-21.19zm-151.49 93.069c8.867-4.636 21.806-2.933 30.392 1.472 1.314.668 2.573 1.414 3.742 2.216 3.067 2.103 7.211 1.643 9.74-1.083 11.521-12.415 30.102-15.688 45.182-7.963 14.901 7.636 22.962 23.854 20.057 40.354-.629 3.577 1.395 7.091 4.804 8.341 1.361.5 2.786 1.12 4.169 1.812 18.632 9.551 26.02 32.478 16.472 51.104-6.142 11.961-17.811 19.647-31.216 20.56-4.063.277-7.164 3.747-6.982 7.816.293 6.594-1.144 13.167-4.161 19.023-4.629 9.029-12.491 15.714-22.14 18.824-9.644 3.11-19.921 2.274-28.935-2.353-9.309-4.78-16.081-12.939-19.072-22.974-.585-1.963-1.947-3.601-3.77-4.534-1.824-.933-3.948-1.08-5.883-.407-7.578 2.638-17.945 4.094-26.521 1.338zm365.394 230.941h-33.613c-1.501-5.848.133-12.259 4.526-16.652 6.762-6.763 17.784-6.759 24.554-.009 4.39 4.405 6.026 10.82 4.533 16.661zm36.427 0h-21.214c1.295-9.799-1.893-19.996-9.138-27.267-12.633-12.597-33.164-12.596-45.77.008-7.249 7.249-10.438 17.448-9.136 27.259h-20.429c-4.805-4.677-7.517-11.068-7.517-17.881 0-13.776 11.194-24.984 24.955-24.984.977 0 1.982.059 3.075.181 3.581.397 6.928-1.799 7.993-5.235 3.258-10.516 12.853-17.582 23.875-17.582 11.16 0 21.048 7.485 24.044 18.203.991 3.547 4.417 5.846 8.07 5.433 1.041-.119 2.032-.179 2.943-.179 13.775 0 24.982 11.208 24.982 24.983.003 6.375-2.425 12.46-6.733 17.061z"/></g></g></svg>